<svg xmlns="http://www.w3.org/2000/svg" xmlns:xlink="http://www.w3.org/1999/xlink" version="1.1" id="Layer_1" x="0px" y="0px" width="100px" height="94.3502824859px" viewBox="8.8784 -16.7835 177.568 226.57725" enable-background="new 0 0 177.568 167.835" xml:space="preserve">
<g>
	<g>
		<path fill-rule="evenodd" clip-rule="evenodd" d="M88.783,84.61c9.252-10.813,22.991-17.672,38.337-17.672    c3.079,0,6.089,0.291,9.016,0.819c1.972-5.398,3.049-11.228,3.049-17.309C139.185,22.585,116.596,0,88.736,0    C60.874,0,38.288,22.585,38.288,50.448c0,6.088,1.084,11.921,3.061,17.324c2.953-0.539,5.991-0.834,9.1-0.834    C65.795,66.938,79.53,73.798,88.783,84.61z M136.136,67.757c-6.055,16.574-20.557,29.074-38.291,32.31    c1.974,5.401,3.052,11.234,3.052,17.319c0,12.515-4.566,23.957-12.111,32.773c9.252,10.813,22.988,17.675,38.334,17.675    c27.863,0,50.448-22.586,50.448-50.449C177.568,92.603,159.694,72.009,136.136,67.757z M79.723,100.078    C61.951,96.871,47.419,84.36,41.349,67.772C17.834,72.058,0,92.632,0,117.386c0,27.863,22.589,50.449,50.448,50.449    c15.348,0,29.084-6.862,38.337-17.675c-7.544-8.817-12.111-20.259-12.111-32.773C76.674,111.305,77.751,105.476,79.723,100.078z     M79.723,100.078c2.926,0.528,5.935,0.819,9.014,0.819c3.111,0,6.153-0.291,9.109-0.83c-2.087-5.709-5.185-10.926-9.062-15.457    C84.904,89.143,81.809,94.366,79.723,100.078z"/>
	</g>
</g>
<text x="0.0" y="197.206125" font-size="8.39175" font-weight="bold" font-family="Helvetica Neue, Helvetica, Arial-Unicode, Arial, Sans-serif" fill="#000000">Created by Ben Rex Furneaux</text><text x="0.0" y="205.597875" font-size="8.39175" font-weight="bold" font-family="Helvetica Neue, Helvetica, Arial-Unicode, Arial, Sans-serif" fill="#000000">from the Noun Project</text></svg>