<svg xmlns="http://www.w3.org/2000/svg" xmlns:xlink="http://www.w3.org/1999/xlink" version="1.1" id="Your_Icon" x="0px" y="0px" width="100px" height="100px" viewBox="5.0 -10.0 100.0 135.0" enable-background="new 0 0 100 100" xml:space="preserve">
<path d="M62.329,63.011V12.329C62.329,5.53,56.798,0,50,0S37.671,5.53,37.671,12.329v50.682c-5.14,3.84-8.219,9.875-8.219,16.441  C29.452,90.783,38.67,100,50,100s20.548-9.217,20.548-20.548C70.548,72.886,67.469,66.851,62.329,63.011z M50,94.521  c-8.322,0-15.068-6.747-15.068-15.068c0-5.854,3.341-10.925,8.219-13.421V12.329c0-3.783,3.066-6.849,6.849-6.849  s6.849,3.066,6.849,6.849v53.703c4.878,2.495,8.219,7.566,8.219,13.421C65.068,87.774,58.322,94.521,50,94.521z"/>
<path d="M53.892,68.925V58.777h-7.785v10.148c-4.283,1.584-7.342,5.693-7.342,10.527c0,6.206,5.03,11.234,11.235,11.234  s11.235-5.028,11.235-11.234C61.235,74.618,58.176,70.509,53.892,68.925z"/>
<text x="0.0" y="117.5" font-size="5.0" font-weight="bold" font-family="Helvetica Neue, Helvetica, Arial-Unicode, Arial, Sans-serif" fill="#000000">Created by Lil Squid</text><text x="0.0" y="122.5" font-size="5.0" font-weight="bold" font-family="Helvetica Neue, Helvetica, Arial-Unicode, Arial, Sans-serif" fill="#000000">from the Noun Project</text></svg>